<svg width="20" height="20" viewBox="0 0 20 20" fill="none" xmlns="http://www.w3.org/2000/svg">
<path d="M8.125 16.875H6.25C6.08424 16.875 5.92527 16.8092 5.80806 16.6919C5.69085 16.5747 5.625 16.4158 5.625 16.25V3.75C5.625 3.58424 5.69085 3.42527 5.80806 3.30806C5.92527 3.19085 6.08424 3.125 6.25 3.125H8.125C8.29076 3.125 8.44973 3.19085 8.56694 3.30806C8.68415 3.42527 8.75 3.58424 8.75 3.75V16.25C8.75 16.4158 8.68415 16.5747 8.56694 16.6919C8.44973 16.8092 8.29076 16.875 8.125 16.875ZM13.75 16.875H11.875C11.7092 16.875 11.5503 16.8092 11.4331 16.6919C11.3158 16.5747 11.25 16.4158 11.25 16.25V3.75C11.25 3.58424 11.3158 3.42527 11.4331 3.30806C11.5503 3.19085 11.7092 3.125 11.875 3.125H13.75C13.9158 3.125 14.0747 3.19085 14.1919 3.30806C14.3092 3.42527 14.375 3.58424 14.375 3.75V16.25C14.375 16.4158 14.3092 16.5747 14.1919 16.6919C14.0747 16.8092 13.9158 16.875 13.75 16.875Z" fill="#A09FA6"/>
</svg>
