<svg width="20" height="20" viewBox="0 0 20 20" fill="none" xmlns="http://www.w3.org/2000/svg">
<path d="M11.2487 6.66667H9.9987V10.8333L13.5654 12.95L14.1654 11.9417L11.2487 10.2083V6.66667ZM10.832 2.5C8.84291 2.5 6.93525 3.29018 5.52873 4.6967C4.12221 6.10322 3.33203 8.01088 3.33203 10H0.832031L4.13203 13.3583L7.4987 10H4.9987C4.9987 8.4529 5.61328 6.96917 6.70724 5.87521C7.8012 4.78125 9.28493 4.16667 10.832 4.16667C12.3791 4.16667 13.8629 4.78125 14.9568 5.87521C16.0508 6.96917 16.6654 8.4529 16.6654 10C16.6654 11.5471 16.0508 13.0308 14.9568 14.1248C13.8629 15.2188 12.3791 15.8333 10.832 15.8333C9.2237 15.8333 7.76536 15.175 6.71536 14.1167L5.53203 15.3C6.22504 16.0004 7.05065 16.5556 7.96064 16.9334C8.87063 17.3111 9.84676 17.5037 10.832 17.5C12.8212 17.5 14.7288 16.7098 16.1353 15.3033C17.5419 13.8968 18.332 11.9891 18.332 10C18.332 8.01088 17.5419 6.10322 16.1353 4.6967C14.7288 3.29018 12.8212 2.5 10.832 2.5Z" fill="#A09FA6"/>
</svg>
