<svg width="20" height="20" viewBox="0 0 20 20" fill="none" xmlns="http://www.w3.org/2000/svg">
<path d="M9.0625 16.25C8.8628 16.25 8.66837 16.1859 8.50781 16.0671C8.49889 16.0609 8.49028 16.0543 8.48203 16.0472L4.9125 13.125H2.1875C1.93886 13.125 1.7004 13.0262 1.52459 12.8504C1.34877 12.6746 1.25 12.4361 1.25 12.1875V7.81245C1.25 7.56381 1.34877 7.32536 1.52459 7.14954C1.7004 6.97373 1.93886 6.87495 2.1875 6.87495H4.91211L8.48125 3.95269C8.4895 3.94562 8.49811 3.93897 8.50703 3.93277C8.64665 3.83008 8.812 3.7681 8.98472 3.75372C9.15744 3.73934 9.33076 3.77312 9.48544 3.85131C9.64011 3.9295 9.77009 4.04903 9.86092 4.19664C9.95176 4.34424 9.9999 4.51414 10 4.68745V15.3125C10 15.5611 9.90123 15.7996 9.72541 15.9754C9.5496 16.1512 9.31114 16.25 9.0625 16.25ZM12.5 13.125C12.3933 13.1249 12.2885 13.0976 12.1954 13.0456C12.1023 12.9936 12.024 12.9186 11.968 12.8278C11.9121 12.737 11.8803 12.6334 11.8757 12.5269C11.8711 12.4203 11.8939 12.3144 11.9418 12.2191C12.3125 11.482 12.5004 10.7347 12.5004 9.99995C12.5004 9.24292 12.3184 8.51792 11.9438 7.78394C11.872 7.63671 11.8609 7.46719 11.9128 7.31185C11.9648 7.15651 12.0756 7.02778 12.2215 6.95334C12.3674 6.87891 12.5367 6.86472 12.693 6.91384C12.8492 6.96295 12.98 7.07144 13.057 7.21597C13.523 8.12964 13.75 9.04058 13.75 9.99995C13.75 10.932 13.5156 11.8675 13.0586 12.7808C13.0065 12.8843 12.9267 12.9713 12.8281 13.0321C12.7294 13.0928 12.6159 13.125 12.5 13.125Z" fill="#A09FA6"/>
<path d="M14.375 15C14.2653 15 14.1575 14.9712 14.0625 14.9163C13.9674 14.8615 13.8885 14.7826 13.8336 14.6876C13.7788 14.5925 13.7499 14.4848 13.7499 14.375C13.7499 14.2653 13.7787 14.1575 13.8336 14.0625C14.5723 12.777 15 11.6996 15 10C15 8.27461 14.573 7.20469 13.8352 5.93985C13.7542 5.79681 13.7329 5.62766 13.7758 5.46901C13.8187 5.31036 13.9223 5.17499 14.0643 5.09219C14.2062 5.0094 14.3751 4.98585 14.5343 5.02664C14.6935 5.06744 14.8302 5.1693 14.9148 5.31016C15.7391 6.72305 16.25 8.00039 16.25 10C16.25 11.9699 15.7398 13.2535 14.9168 14.6875C14.8619 14.7826 14.7829 14.8615 14.6878 14.9164C14.5927 14.9713 14.4848 15.0001 14.375 15Z" fill="#A09FA6"/>
<path d="M16.25 16.875C16.1375 16.8749 16.027 16.8444 15.9303 16.7868C15.8337 16.7291 15.7544 16.6464 15.7008 16.5475C15.6472 16.4485 15.6214 16.3369 15.626 16.2244C15.6306 16.112 15.6655 16.0028 15.727 15.9086C16.791 14.2761 17.5 12.6469 17.5 9.99998C17.5 7.40232 16.7898 5.75701 15.723 4.08631C15.6789 4.01705 15.6488 3.93978 15.6345 3.8589C15.6202 3.77802 15.6219 3.69511 15.6397 3.61491C15.6574 3.53471 15.6908 3.45879 15.7379 3.39148C15.7849 3.32418 15.8448 3.2668 15.9141 3.22263C15.9833 3.17847 16.0606 3.14837 16.1415 3.13407C16.2224 3.11976 16.3053 3.12153 16.3855 3.13927C16.4657 3.15701 16.5416 3.19037 16.6089 3.23745C16.6762 3.28452 16.7336 3.3444 16.7777 3.41365C17.9613 5.26912 18.75 7.0992 18.75 9.99998C18.75 12.5293 18.1773 14.4386 16.7734 16.5914C16.7167 16.6785 16.6391 16.75 16.5477 16.7995C16.4563 16.849 16.3539 16.875 16.25 16.875Z" fill="#A09FA6"/>
</svg>
