<svg width="20" height="20" viewBox="0 0 20 20" fill="none" xmlns="http://www.w3.org/2000/svg">
<path fill-rule="evenodd" clip-rule="evenodd" d="M2.05806 2.68306C2.30214 2.43898 2.69786 2.43898 2.94194 2.68306L16.6919 16.4331C16.936 16.6771 16.936 17.0729 16.6919 17.3169C16.4479 17.561 16.0521 17.561 15.8081 17.3169L2.05806 3.56694C1.81398 3.32286 1.81398 2.92714 2.05806 2.68306Z" fill="#A09FA6"/>
<path d="M9.50508 3.86176C9.34913 3.77763 9.17246 3.73965 8.99572 3.75224C8.81898 3.76483 8.64948 3.82747 8.50703 3.93285L8.48125 3.95277L7.36719 4.86488C7.33339 4.89253 7.30576 4.92696 7.28609 4.96594C7.26641 5.00493 7.25512 5.0476 7.25295 5.09121C7.25078 5.13483 7.25777 5.17841 7.27348 5.21916C7.28918 5.2599 7.31326 5.2969 7.34414 5.32777L9.46641 7.45004C9.51011 7.49379 9.56581 7.52359 9.62647 7.53567C9.68712 7.54775 9.74999 7.54156 9.80712 7.51789C9.86425 7.49422 9.91308 7.45412 9.94741 7.40269C9.98175 7.35125 10 7.29079 10 7.22894V4.7098C10.0018 4.53693 9.95667 4.36681 9.86953 4.2175C9.78239 4.06819 9.65645 3.94526 9.50508 3.86176ZM9.81758 13.0973L3.77695 7.05824C3.6598 6.94101 3.50089 6.87511 3.33516 6.87504H2.1875C1.93886 6.87504 1.7004 6.97381 1.52459 7.14962C1.34877 7.32544 1.25 7.5639 1.25 7.81254V12.1875C1.25 12.4362 1.34877 12.6746 1.52459 12.8504C1.7004 13.0263 1.93886 13.125 2.1875 13.125H4.9125L8.50625 16.0668C8.65049 16.1739 8.82255 16.2371 9.00179 16.2488C9.18104 16.2605 9.35986 16.2202 9.5168 16.1328C9.66505 16.0483 9.78802 15.9257 9.87298 15.7777C9.95794 15.6297 10.0018 15.4617 10 15.2911V13.5387C10 13.3732 9.93442 13.2145 9.81758 13.0973ZM13.75 10C13.75 9.04066 13.523 8.13012 13.0566 7.21605C13.0197 7.14238 12.9685 7.07675 12.906 7.02294C12.8436 6.96914 12.7711 6.92822 12.6928 6.90254C12.6144 6.87686 12.5318 6.86693 12.4496 6.87332C12.3674 6.87972 12.2873 6.90231 12.2139 6.93979C12.1405 6.97727 12.0752 7.02891 12.0218 7.09172C11.9684 7.15454 11.928 7.2273 11.9028 7.3058C11.8777 7.38431 11.8683 7.46701 11.8753 7.54916C11.8822 7.6313 11.9054 7.71125 11.9434 7.78441C12.318 8.51801 12.5 9.24301 12.5 10C12.5 10.1042 12.496 10.2101 12.4879 10.3176C12.4846 10.3624 12.4909 10.4074 12.5066 10.4496C12.5222 10.4917 12.5467 10.53 12.5785 10.5618L13.1395 11.1227C13.18 11.1633 13.2309 11.192 13.2866 11.2056C13.3423 11.2192 13.4007 11.2172 13.4554 11.1998C13.5101 11.1824 13.5589 11.1503 13.5965 11.107C13.6341 11.0637 13.6591 11.0109 13.6688 10.9543C13.7225 10.6391 13.7497 10.3199 13.75 10ZM16.25 10C16.25 8.00082 15.7391 6.72308 14.9148 5.31019C14.8302 5.16933 14.6935 5.06747 14.5343 5.02668C14.3751 4.98588 14.2062 5.00943 14.0643 5.09223C13.9223 5.17502 13.8187 5.3104 13.7758 5.46904C13.7329 5.62769 13.7542 5.79685 13.8352 5.93988C14.573 7.20473 15 8.27465 15 10C15 10.9309 14.8715 11.675 14.634 12.3692C14.6149 12.4245 14.6117 12.4841 14.6249 12.5411C14.638 12.5982 14.6669 12.6504 14.7082 12.6918L15.1953 13.1797C15.2321 13.2166 15.2776 13.2437 15.3276 13.2585C15.3775 13.2733 15.4304 13.2754 15.4814 13.2646C15.5323 13.2537 15.5798 13.2303 15.6194 13.1965C15.659 13.1626 15.6896 13.1194 15.7082 13.0707C16.0547 12.1782 16.25 11.2211 16.25 10Z" fill="#A09FA6"/>
<path d="M18.75 9.99998C18.75 7.09959 17.9613 5.26912 16.777 3.41365C16.6878 3.27379 16.5467 3.17509 16.3847 3.13927C16.2227 3.10345 16.0531 3.13344 15.9133 3.22264C15.7734 3.31184 15.6747 3.45294 15.6389 3.61491C15.6031 3.77688 15.6331 3.94645 15.7223 4.08631C16.7898 5.75701 17.5 7.40232 17.5 9.99998C17.5 11.8043 17.1707 13.1355 16.6238 14.3176C16.597 14.3755 16.5886 14.4402 16.5997 14.5031C16.6108 14.5659 16.6409 14.6239 16.6859 14.6691L17.1516 15.1347C17.1868 15.1705 17.2301 15.1973 17.2778 15.2128C17.3256 15.2283 17.3763 15.2321 17.4259 15.2238C17.4754 15.2155 17.5221 15.1954 17.5623 15.1652C17.6024 15.1351 17.6346 15.0957 17.6563 15.0504C18.4219 13.4726 18.75 11.914 18.75 9.99998Z" fill="#A09FA6"/>
</svg>
