<svg width="20" height="20" viewBox="0 0 20 20" fill="none" xmlns="http://www.w3.org/2000/svg">
<path d="M10.3125 16.2574C10.1126 16.2573 9.91809 16.1931 9.75742 16.0742L9.73164 16.0543L6.15898 13.1246H3.4375C3.18886 13.1246 2.9504 13.0258 2.77459 12.85C2.59877 12.6742 2.5 12.4357 2.5 12.1871V7.81247C2.5 7.56383 2.59877 7.32538 2.77459 7.14956C2.9504 6.97375 3.18886 6.87497 3.4375 6.87497H6.1582L9.73086 3.94529L9.75664 3.92536C9.89631 3.82252 10.0618 3.76045 10.2346 3.74604C10.4075 3.73163 10.5809 3.76546 10.7357 3.84375C10.8905 3.92205 11.0205 4.04174 11.1113 4.18953C11.2021 4.33731 11.2501 4.50739 11.25 4.68083V15.3191C11.25 15.5678 11.1512 15.8062 10.9754 15.982C10.7996 16.1578 10.5611 16.2566 10.3125 16.2566V16.2574ZM13.75 13.125C13.6434 13.1249 13.5386 13.0976 13.4455 13.0456C13.3525 12.9936 13.2742 12.9187 13.2183 12.828C13.1624 12.7372 13.1306 12.6337 13.1259 12.5272C13.1213 12.4207 13.144 12.3148 13.1918 12.2195C13.5625 11.4812 13.7504 10.7351 13.7504 9.99997C13.7504 9.24372 13.5684 8.51872 13.1938 7.78396C13.122 7.63673 13.1109 7.46721 13.1628 7.31187C13.2148 7.15653 13.3256 7.0278 13.4715 6.95336C13.6174 6.87893 13.7867 6.86474 13.943 6.91386C14.0992 6.96297 14.23 7.07146 14.307 7.21599C14.7734 8.13122 15 9.04177 15 9.99997C15 10.9308 14.7656 11.8664 14.3086 12.7804C14.2566 12.884 14.1768 12.9711 14.0782 13.0319C13.9795 13.0928 13.8659 13.125 13.75 13.125Z" fill="#A09FA6"/>
<path d="M15.625 15C15.5152 15.0001 15.4074 14.9713 15.3123 14.9165C15.2172 14.8616 15.1383 14.7827 15.0833 14.6877C15.0284 14.5927 14.9995 14.4849 14.9995 14.3751C14.9994 14.2654 15.0283 14.1575 15.0832 14.0625C15.8203 12.7754 16.25 11.6973 16.25 9.99999C16.25 8.27655 15.8227 7.20624 15.0848 5.93944C15.0086 5.7966 14.9908 5.62979 15.0352 5.47411C15.0796 5.31844 15.1826 5.18605 15.3226 5.1048C15.4626 5.02356 15.6287 4.99981 15.7858 5.03855C15.943 5.07728 16.079 5.17549 16.1652 5.31249C16.9891 6.72499 17.5 8.00311 17.5 9.99999C17.5 11.9672 16.9898 13.2516 16.1672 14.6875C16.1123 14.7826 16.0332 14.8616 15.938 14.9165C15.8428 14.9713 15.7349 15.0001 15.625 15Z" fill="#A09FA6"/>
</svg>
