<svg width="20" height="20" viewBox="0 0 20 20" fill="none" xmlns="http://www.w3.org/2000/svg">
<path d="M14.375 3.75H5.625C5.45924 3.75 5.30027 3.68415 5.18306 3.56694C5.06585 3.44973 5 3.29076 5 3.125C5 2.95924 5.06585 2.80027 5.18306 2.68306C5.30027 2.56585 5.45924 2.5 5.625 2.5H14.375C14.5408 2.5 14.6997 2.56585 14.8169 2.68306C14.9342 2.80027 15 2.95924 15 3.125C15 3.29076 14.9342 3.44973 14.8169 3.56694C14.6997 3.68415 14.5408 3.75 14.375 3.75ZM15.625 5.625H4.375C4.20924 5.625 4.05027 5.55915 3.93306 5.44194C3.81585 5.32473 3.75 5.16576 3.75 5C3.75 4.83424 3.81585 4.67527 3.93306 4.55806C4.05027 4.44085 4.20924 4.375 4.375 4.375H15.625C15.7908 4.375 15.9497 4.44085 16.0669 4.55806C16.1842 4.67527 16.25 4.83424 16.25 5C16.25 5.16576 16.1842 5.32473 16.0669 5.44194C15.9497 5.55915 15.7908 5.625 15.625 5.625ZM16.3723 17.5H3.62773C3.16304 17.4995 2.71752 17.3147 2.38893 16.9861C2.06035 16.6575 1.87552 16.212 1.875 15.7473V8.00273C1.87552 7.53804 2.06035 7.09252 2.38893 6.76393C2.71752 6.43535 3.16304 6.25052 3.62773 6.25H16.3723C16.837 6.25052 17.2825 6.43535 17.6111 6.76393C17.9397 7.09252 18.1245 7.53804 18.125 8.00273V15.7473C18.1245 16.212 17.9397 16.6575 17.6111 16.9861C17.2825 17.3147 16.837 17.4995 16.3723 17.5Z" fill="#A09FA6"/>
</svg>
